<svg xmlns="http://www.w3.org/2000/svg" viewBox="0 0 100 100" fill="none">
  <defs>
    <linearGradient id="grad1" x1="0%" y1="0%" x2="100%" y2="100%">
      <stop offset="0%" style="stop-color:#3B82F6;stop-opacity:1" />
      <stop offset="100%" style="stop-color:#1E40AF;stop-opacity:1" />
    </linearGradient>
  </defs>
  
  <!-- Outer circle -->
  <circle cx="50" cy="50" r="45" stroke="url(#grad1)" stroke-width="2" fill="none"/>
  
  <!-- Inner sacred geometry -->
  <polygon points="50,20 65,40 85,40 70,55 75,75 50,65 25,75 30,55 15,40 35,40" 
           fill="url(#grad1)" opacity="0.8"/>
  
  <!-- Center point -->
  <circle cx="50" cy="50" r="3" fill="#3B82F6"/>
  
  <!-- Connecting lines -->
  <g stroke="#3B82F6" stroke-width="1" opacity="0.6">
    <line x1="50" y1="20" x2="50" y2="35"/>
    <line x1="65" y1="40" x2="55" y2="45"/>
    <line x1="85" y1="40" x2="70" y2="45"/>
    <line x1="70" y1="55" x2="60" y2="50"/>
    <line x1="75" y1="75" x2="60" y2="65"/>
    <line x1="50" y1="65" x2="50" y2="55"/>
    <line x1="25" y1="75" x2="40" y2="65"/>
    <line x1="30" y1="55" x2="40" y2="50"/>
    <line x1="15" y1="40" x2="30" y2="45"/>
    <line x1="35" y1="40" x2="45" y2="45"/>
  </g>
</svg>
